<svg width="741" height="844" viewBox="0 0 741 844" fill="none" xmlns="http://www.w3.org/2000/svg">
<path d="M278.678 734.067C473.191 734.067 649.421 627.551 740.5 455.793V231.085C740.5 217.03 733.008 204.042 720.836 197.018L390.168 6.10843C377.997 -0.915049 362.995 -0.915049 350.832 6.10843L20.164 197.018C7.99229 204.042 0.5 217.03 0.5 231.085V612.905C0.5 626.961 8.00097 639.949 20.164 646.972L136.611 714.203C182.937 727.26 230.677 734.067 278.678 734.067Z" fill="#177FE2"/>
<path d="M278.678 743.877C241.295 743.877 204.068 739.858 167.526 732.062L350.831 837.891C363.003 844.915 377.996 844.915 390.168 837.891L720.836 646.981C733.007 639.949 740.5 626.97 740.5 612.914V475.883C645.505 641.703 470.899 743.877 278.678 743.877Z" fill="#177FE2"/>
<path d="M537.236 240.783C510.141 302.917 465.057 321.826 429.905 326.349C442.45 318.449 447.077 305.279 447.077 287.533C447.077 272.028 445.401 257.399 438.517 249.707C426.857 236.806 415.267 235.938 401.932 234.636H196.94L321.14 160.72C323.745 158.984 331.871 156.813 338.747 156.813C351.205 156.813 400.864 156.813 412.723 156.813C449.247 156.813 482.793 171.451 504.68 191.228C519.751 204.693 530.039 221.431 537.236 240.783Z" fill="white"/>
<path d="M460.412 471.073V536.802C460.412 546.291 455.698 554.409 447.945 559.184L322.252 620.945V535.309L460.412 471.073Z" fill="white"/>
<path d="M333.538 333.92C321.827 342.028 316.018 359.253 315.992 381.478V619.087L243.379 568.177V373.039C243.379 356.301 258.815 333.911 275.996 333.911H333.538V333.92Z" fill="white"/>
<path d="M544.06 285.797C544.06 330.898 520.672 369.505 484.721 391.088C441.747 416.881 397.045 413.904 397.045 413.904H322.261V381.477C322.261 369.202 324.31 350.475 335.596 340.43C339.008 337.392 343.158 335.161 348.427 334.102C350.806 333.624 401.603 333.876 403.99 334.041C409.703 334.423 437.276 333.581 459.24 326.045C488.133 316.122 518.71 294.487 540.032 250.02C542.688 261.184 544.06 272.965 544.06 285.797Z" fill="white"/>
</svg>
