<svg width="115" height="116" viewBox="0 0 115 116" fill="none" xmlns="http://www.w3.org/2000/svg">
<path d="M49.9635 63.406C65.9301 63.406 80.3971 54.5865 87.8732 40.3649V21.7585C87.8732 20.5951 87.258 19.5197 86.2586 18.9374L59.1152 3.1301C58.1158 2.54778 56.8853 2.54778 55.886 3.1301L28.7425 18.9374C27.7432 19.5197 27.1279 20.5951 27.1279 21.7585V53.3732C27.1279 54.5367 27.7432 55.612 28.7425 56.1943L38.3013 61.7611C42.1044 62.8434 46.0236 63.406 49.9635 63.406Z" fill="#177FE2"/>
<path d="M49.9639 64.2189C46.8957 64.2189 43.839 63.886 40.8398 63.2399L55.8864 72.0025C56.8858 72.5849 58.1163 72.5849 59.1156 72.0025L86.2591 56.1952C87.2584 55.6129 87.8737 54.5376 87.8737 53.3741V42.0293C80.0767 55.7591 65.7431 64.2189 49.9639 64.2189Z" fill="#177FE2"/>
<path d="M71.0778 22.292C68.9975 27.0816 65.6337 28.7543 62.8565 29.2636C63.5246 28.6024 63.7845 27.6465 63.7845 26.4355C63.7845 25.149 63.6477 23.9368 63.0819 23.3046C62.1262 22.2316 61.1786 22.162 60.0804 22.0518H43.2559L53.4483 15.934C53.6599 15.789 54.3281 15.6104 54.895 15.6104H60.967C63.9685 15.6104 66.7182 16.8214 68.5191 18.4593C69.6863 19.5126 70.504 20.799 71.0778 22.292Z" fill="white"/>
<path d="M64.8827 41.6309V47.0747C64.8827 47.8589 64.494 48.534 63.8592 48.9261L53.8369 53.8944V46.8126L64.8827 41.6309Z" fill="white"/>
<path d="M54.4668 30.2725C53.5054 30.9441 53.0282 32.3697 53.0259 34.2107V53.8854L47.0654 49.67V33.5123C47.0654 32.1261 48.3327 30.2725 49.7426 30.2725H54.4668Z" fill="white"/>
<path d="M71.7477 26.2894C71.7477 30.0246 69.8272 33.2204 66.8763 35.008C63.3493 37.1435 59.6785 36.8976 59.6785 36.8976H53.833V34.2122C53.833 33.1961 54.0009 31.6451 54.9278 30.8134C55.2073 30.5617 55.5488 30.3773 55.9812 30.2903C56.1767 30.2508 60.0522 30.2717 60.2489 30.2856C60.7181 30.3169 62.9813 30.2473 64.7845 29.6233C67.1569 28.802 69.6662 27.0098 71.4165 23.3291C71.635 24.2501 71.7477 25.2257 71.7477 26.2894Z" fill="white"/>
<path d="M21.3098 76.1426C24.6011 76.1426 27.3956 77.3003 29.7301 79.6562C32.0646 82.011 33.2134 84.8298 33.2134 88.1497C33.2134 91.4697 32.0657 94.2885 29.7301 96.6433C27.3944 98.9981 24.6011 100.157 21.3098 100.157H13.0424V111.622H6.84277V82.3973V76.1426H21.3098ZM21.3098 93.9022C22.8795 93.9022 24.2181 93.3233 25.329 92.2039C26.4388 91.0845 27.0126 89.7331 27.0126 88.1497C27.0126 86.5663 26.4388 85.2161 25.329 84.0955C24.2193 82.9761 22.8795 82.3973 21.3098 82.3973H13.0424V99.4609C13.1954 97.9169 13.8842 96.6038 15.071 95.4844C16.2578 94.4033 17.6355 93.8627 19.2041 93.8627L21.3098 93.9022Z" fill="#177FE2"/>
<path d="M41.7096 111.583V111.621H35.5088V76.1426C37.2315 76.1426 38.6851 76.7609 39.9098 77.9951C41.1346 79.2305 41.7464 80.6979 41.7464 82.4344V105.366H46.7604V106.564C46.7604 107.992 46.2624 109.189 45.3056 110.154C44.312 111.082 43.1264 111.583 41.7096 111.583Z" fill="#177FE2"/>
<path d="M59.6216 111.622C56.5212 111.622 53.8429 110.503 51.6222 108.264C49.4027 106.025 48.293 103.322 48.293 100.195C48.293 97.0674 49.4027 94.3657 51.6222 92.1258C53.8417 89.887 56.5212 88.7676 59.6216 88.7676C61.3823 88.7676 63.105 89.1921 64.7506 90.003V88.7676C66.4733 88.7676 67.9269 89.3847 69.1517 90.6201C70.3764 91.8555 70.9882 93.3229 70.9882 95.0594V111.66H64.7874V110.425C63.1038 111.197 61.4202 111.622 59.6216 111.622ZM63.2568 96.5651C62.262 95.5617 61.0373 95.0211 59.6596 95.0211C58.2439 95.0211 57.0571 95.5234 56.0624 96.5651C55.0676 97.5685 54.5317 98.8039 54.5317 100.194C54.5317 101.622 55.0297 102.819 56.0624 103.822C57.0571 104.825 58.2819 105.366 59.6596 105.366C61.0752 105.366 62.262 104.864 63.2568 103.822C64.2515 102.819 64.7874 101.583 64.7874 100.194C64.7495 98.7656 64.2527 97.5685 63.2568 96.5651Z" fill="#177FE2"/>
<path d="M88.6707 88.767C88.6707 90.311 88.1727 91.6624 87.2159 92.8212C86.2591 93.9406 85.0344 94.6737 83.5417 94.944V100.234C83.5417 101.662 84.0396 102.859 85.0723 103.862C86.0671 104.865 87.2918 105.406 88.6695 105.406V111.621C85.5691 111.621 82.8908 110.502 80.7092 108.301C78.4897 106.063 77.4179 103.36 77.4179 100.194V95.0206H71.8301C71.8301 93.4372 72.366 92.0475 73.4378 90.8515C74.5096 89.6544 75.8493 88.999 77.4179 88.8053V87.9179C77.4179 86.4122 78.0309 85.0991 79.2165 84.0191C80.4033 82.938 81.8569 82.3975 83.5796 82.3975V88.767C83.5808 88.767 88.6707 88.767 88.6707 88.767Z" fill="#177FE2"/>
<path d="M105.588 98.3799C104.708 97.7616 102.87 96.5274 99.962 96.3337C99.617 96.2954 99.3491 96.4114 98.3923 96.1794C98.1243 96.1017 97.7034 96.0251 97.5125 95.5228C97.4746 95.3685 97.4355 95.2143 97.4355 95.0983C97.4355 95.0983 97.4355 95.0983 97.4355 95.06V95.0217C97.4355 94.9057 97.4734 94.7897 97.5125 94.7131C97.7034 94.2109 98.3164 93.748 99.1202 93.7098C99.962 93.6715 100.651 94.0578 100.919 94.6366C101.072 94.9846 101.34 95.524 101.723 95.524H106.928C106.928 93.6715 106.162 92.0498 104.631 90.7367C103.1 89.4236 101.263 88.7287 99.0811 88.6904C96.9375 88.7287 95.101 89.4236 93.5703 90.7367C92.0397 92.0881 91.3117 93.6703 91.3117 95.524C91.3117 97.3765 92.0776 98.9982 93.5703 100.311C95.101 101.663 96.9387 102.319 99.0811 102.319C99.9609 102.319 100.651 102.474 101.225 102.744C101.799 103.014 102.067 103.4 102.067 103.902C102.067 104.288 101.876 104.828 101.34 105.175C100.842 105.523 100.192 105.677 99.4641 105.716C98.5073 105.716 97.7414 105.213 97.2446 104.635C96.8237 104.056 96.2498 103.747 95.4839 103.747H90.7379C90.6999 105.639 91.3508 107.299 92.6894 108.767C94.0292 110.195 95.6369 111.16 97.7034 111.546C98.0864 111.624 98.8511 111.738 99.4261 111.738C100.001 111.738 100.766 111.661 101.11 111.584C103.138 111.198 104.746 110.233 106.124 108.843C107.463 107.453 108.152 105.793 108.152 103.94C108.229 101.739 107.501 99.7696 105.588 98.3799Z" fill="#177FE2"/>
</svg>
