<?xml version="1.0" encoding="utf-8"?>
<!-- Generator: Adobe Illustrator 25.3.1, SVG Export Plug-In . SVG Version: 6.00 Build 0)  -->
<svg version="1.1" id="Layer_1" xmlns="http://www.w3.org/2000/svg" xmlns:xlink="http://www.w3.org/1999/xlink" x="0px" y="0px"
	 viewBox="0 0 271 114" style="enable-background:new 0 0 271 114;" xml:space="preserve">
<style type="text/css">
	.st0{fill:url(#SVGID_1_);}
	.st1{fill:url(#SVGID_2_);}
	.st2{fill:url(#SVGID_3_);}
	.st3{fill:url(#SVGID_4_);}
	.st4{fill:url(#SVGID_5_);}
	.st5{fill:url(#SVGID_6_);}
	.st6{fill:url(#SVGID_7_);}
	.st7{fill:url(#SVGID_8_);}
	.st8{fill:url(#SVGID_9_);}
	.st9{clip-path:url(#SVGID_11_);}
	.st10{fill:#0067C6;}
</style>
<g>
	
		<linearGradient id="SVGID_1_" gradientUnits="userSpaceOnUse" x1="-2.7723" y1="37.1662" x2="102.1864" y2="34.9539" gradientTransform="matrix(1 0 0 -1 0 115)">
		<stop  offset="0" style="stop-color:#005EB6"/>
		<stop  offset="0" style="stop-color:#006EEF"/>
	</linearGradient>
	<path class="st0" d="M38.9,91c-7.2,0-14.2-1.1-20.6-3.1l29.3,16.9c1.7,1,3.9,1,5.7,0l40.8-23.4c1.7-1,2.9-2.9,2.9-4.9v-23
		C89.9,75.1,66.6,91,38.9,91z"/>
	
		<linearGradient id="SVGID_2_" gradientUnits="userSpaceOnUse" x1="0.1718" y1="50.7855" x2="98.3155" y2="86.83" gradientTransform="matrix(1 0 0 -1 0 115)">
		<stop  offset="0" style="stop-color:#53A3FE"/>
		<stop  offset="1" style="stop-color:#53A3FE"/>
	</linearGradient>
	<path class="st1" d="M94.1,24.7L53.3,1.3c-1.7-1-3.9-1-5.7,0L6.9,24.7c-1.8,1-2.9,2.8-2.9,4.9v2.6v44.3c0,2,1.1,3.9,2.9,4.9
		l11.4,6.6c6.4,2,13.4,3.1,20.6,3.1c27.6,0,50.9-15.9,58-37.6V29.6C96.9,27.5,95.9,25.7,94.1,24.7z"/>
	
		<linearGradient id="SVGID_3_" gradientUnits="userSpaceOnUse" x1="56.7538" y1="87.2551" x2="-2.8956" y2="88.0239" gradientTransform="matrix(1 0 0 -1 0 115)">
		<stop  offset="0" style="stop-color:#0D0E19"/>
		<stop  offset="0.6022" style="stop-color:#20222A"/>
		<stop  offset="0.8398" style="stop-color:#3E4151"/>
		<stop  offset="1" style="stop-color:#4E5266"/>
	</linearGradient>
	<path class="st2" d="M47.1,22.9l-15.8,9.6h17.9v-9.9h-0.8C48.1,22.6,47.5,22.6,47.1,22.9z"/>
	
		<linearGradient id="SVGID_4_" gradientUnits="userSpaceOnUse" x1="45.6596" y1="89.6918" x2="45.8597" y2="89.6918" gradientTransform="matrix(1 0 0 -1 0 115)">
		<stop  offset="0" style="stop-color:#0D0E19"/>
		<stop  offset="0.6022" style="stop-color:#20222A"/>
		<stop  offset="0.8398" style="stop-color:#3E4151"/>
		<stop  offset="1" style="stop-color:#4E5266"/>
	</linearGradient>
	<path class="st3" d="M45.9,25.2c0,0.1-0.1,0.2-0.2,0.3C45.7,25.3,45.8,25.2,45.9,25.2z"/>
	
		<linearGradient id="SVGID_5_" gradientUnits="userSpaceOnUse" x1="78.4917" y1="71.563" x2="52.0614" y2="68.3871" gradientTransform="matrix(1 0 0 -1 0 115)">
		<stop  offset="0" style="stop-color:#0D0E19"/>
		<stop  offset="0.6022" style="stop-color:#20222A"/>
		<stop  offset="0.8398" style="stop-color:#3E4151"/>
		<stop  offset="1" style="stop-color:#4E5266"/>
	</linearGradient>
	<path class="st4" d="M54.6,45.7h-4.5v10.4H54c0,0,5.9,0.4,11.4-3c2.1-1.2,3.9-3.1,5.4-5.4s2.3-5.1,2.3-8.4c0-1.9-0.2-3.6-0.7-5.3
		C67.1,46.7,56.1,45.8,54.6,45.7z"/>
	
		<linearGradient id="SVGID_6_" gradientUnits="userSpaceOnUse" x1="29.6253" y1="98.0531" x2="72.4733" y2="68.177" gradientTransform="matrix(1 0 0 -1 0 115)">
		<stop  offset="0" style="stop-color:#0D0E19"/>
		<stop  offset="0.6022" style="stop-color:#20222A"/>
		<stop  offset="0.8398" style="stop-color:#3E4151"/>
		<stop  offset="1" style="stop-color:#4E5266"/>
	</linearGradient>
	<path class="st5" d="M68.2,27.1c-2.8-2.6-7.2-4.5-12-4.5h-0.2c0,0-1.8,0-1.8,0l-6.8,0l-0.9,0c-0.9,0-2,0.3-2.3,0.5L28,32.7h16.3
		h10.4c1.7,0.2,3.3,0.3,4.8,2c0.9,1,1.1,2.9,1.1,4.9s-0.5,3.5-1.6,4.6c-1.1,1-2.5,1.5-4.3,1.5c1.4,0.1,12.5,1,17.9-11.5
		C71.8,31.4,70.3,29,68.2,27.1z"/>
	
		<linearGradient id="SVGID_7_" gradientUnits="userSpaceOnUse" x1="34.6479" y1="27.4116" x2="60.426" y2="47.5888" gradientTransform="matrix(1 0 0 -1 0 115)">
		<stop  offset="0.6022" style="stop-color:#20222A"/>
		<stop  offset="0.8398" style="stop-color:#3E4151"/>
		<stop  offset="1" style="stop-color:#4E5266"/>
	</linearGradient>
	<path class="st6" d="M44,83.4l16.8-8.2c1-0.6,1.7-1.7,1.7-2.9v-8.6L44,72.2V83.4z"/>
	
		<linearGradient id="SVGID_8_" gradientUnits="userSpaceOnUse" x1="35.6878" y1="66.016" x2="50.6695" y2="62.9985" gradientTransform="matrix(1 0 0 -1 0 115)">
		<stop  offset="0.6022" style="stop-color:#20222A"/>
		<stop  offset="0.8398" style="stop-color:#3E4151"/>
		<stop  offset="1" style="stop-color:#4E5266"/>
	</linearGradient>
	<path class="st7" d="M37.7,45.9l-0.3,10.3h14.7l1.3-10.4L37.7,45.9z"/>
	
		<linearGradient id="SVGID_9_" gradientUnits="userSpaceOnUse" x1="42.0983" y1="70.3346" x2="39.7504" y2="29.3639" gradientTransform="matrix(1 0 0 -1 0 115)">
		<stop  offset="0" style="stop-color:#0D0E19"/>
		<stop  offset="0.6022" style="stop-color:#20222A"/>
		<stop  offset="0.8398" style="stop-color:#3E4151"/>
		<stop  offset="1" style="stop-color:#4E5266"/>
	</linearGradient>
	<path class="st8" d="M44,56.3c0,0,0-2.6,0-4c0-1.4,0.2-6.1,4.1-6.5c0.5,0,1.6-0.1,1.6-0.1H38.3c-2.3,0-4.3,2.9-4.3,5.1v25.5l10,6.9
		C44,83.3,44,57.3,44,56.3z"/>
	<g>
		<defs>
			<rect id="SVGID_10_" x="115.8" y="28.1" width="151.2" height="50.6"/>
		</defs>
		<clipPath id="SVGID_11_">
			<use xlink:href="#SVGID_10_"  style="overflow:visible;"/>
		</clipPath>
		<g class="st9">
			<path class="st10" d="M136.8,28.1c4.8,0,8.8,1.7,12.2,5c3.4,3.3,5.1,7.3,5.1,12c0,4.7-1.7,8.7-5.1,12c-3.4,3.3-7.4,5-12.2,5h-12
				v16.2h-9V36.9v-8.9H136.8z M136.8,53.2c2.3,0,4.2-0.8,5.8-2.4c1.6-1.6,2.4-3.5,2.4-5.7c0-2.2-0.8-4.2-2.4-5.7
				c-1.6-1.6-3.6-2.4-5.8-2.4h-12v24.2c0.2-2.2,1.2-4.1,2.9-5.6c1.7-1.5,3.7-2.3,6-2.3L136.8,53.2L136.8,53.2z"/>
			<path class="st10" d="M167.8,78.2L167.8,78.2l-9,0.1V28.1c2.5,0,4.6,0.9,6.4,2.6c1.8,1.7,2.6,3.8,2.6,6.3v32.4h7.3V71
				c0,2-0.7,3.7-2.1,5.1C171.6,77.5,169.9,78.2,167.8,78.2z"/>
			<path class="st10" d="M196.4,78.3c-4.5,0-8.4-1.6-11.6-4.8c-3.2-3.2-4.8-7-4.8-11.4c0-4.4,1.6-8.2,4.8-11.4
				c3.2-3.2,7.1-4.8,11.6-4.8c2.6,0,5.1,0.6,7.4,1.8v-1.8c2.5,0,4.6,0.9,6.4,2.6c1.8,1.7,2.6,3.8,2.6,6.3v23.5h-9v-1.8
				C201.4,77.7,198.9,78.3,196.4,78.3z M201.6,56.9c-1.5-1.4-3.2-2.2-5.2-2.2c-2,0-3.8,0.7-5.2,2.2c-1.5,1.4-2.2,3.2-2.2,5.2
				s0.7,3.7,2.2,5.2c1.5,1.4,3.2,2.2,5.2,2.2c2,0,3.8-0.7,5.2-2.2c1.5-1.4,2.2-3.2,2.2-5.2C203.8,60.1,203.1,58.4,201.6,56.9z"/>
			<path class="st10" d="M238.8,45.9c0,2.2-0.7,4.1-2.1,5.7c-1.4,1.6-3.2,2.6-5.3,3v7.5c0,2,0.7,3.7,2.2,5.2
				c1.5,1.4,3.2,2.2,5.2,2.2v8.9c-4.5,0-8.4-1.6-11.6-4.7c-3.2-3.1-4.8-7-4.8-11.5v-7.3h-8.1c0-2.2,0.8-4.2,2.3-5.9
				c1.6-1.7,3.5-2.6,5.8-2.9v-1.2c0-2.1,0.9-4,2.6-5.5c1.7-1.5,3.8-2.3,6.3-2.3v9H238.8z"/>
			<path class="st10" d="M263.1,59.8c-1.2-0.9-4-2.6-8.2-2.9c-0.5,0-0.9,0.1-2.3-0.2c-0.4-0.1-1-0.2-1.3-0.9
				c-0.1-0.2-0.1-0.4-0.1-0.6c0,0,0,0,0,0c0,0,0,0,0-0.1c0-0.2,0.1-0.3,0.1-0.4c0.3-0.7,1.2-1.3,2.4-1.4c1.2-0.1,2.2,0.5,2.6,1.3
				c0.2,0.5,0.6,1.2,1.2,1.2h7.6c0-2.6-1.1-4.9-3.3-6.8c-2.2-1.9-4.9-2.9-8-2.9c-3.1,0.1-5.8,1-8,2.9c-2.2,1.9-3.3,4.1-3.3,6.8
				c0,2.6,1.1,4.9,3.3,6.8c2.2,1.9,4.9,2.8,8,2.8c1.3,0,2.3,0.2,3.1,0.6c0.8,0.4,1.2,0.9,1.2,1.6c0,0.6-0.3,1.3-1,1.8
				s-1.6,0.7-2.7,0.8c-1.4,0-2.5-0.7-3.2-1.5c-0.6-0.8-1.5-1.3-2.6-1.3h-6.9c-0.1,2.7,0.9,5,2.8,7.1c1.9,2,4.2,3.4,7.3,3.9
				c0.6,0.1,1.7,0.3,2.5,0.3c0.8,0,2-0.1,2.4-0.2c2.9-0.5,5.3-1.9,7.3-3.9c2-2,3-4.3,3-6.9C267,64.5,265.9,61.8,263.1,59.8z"/>
		</g>
	</g>
</g>
</svg>
