<svg width="137" height="146" viewBox="0 0 137 146" fill="none" xmlns="http://www.w3.org/2000/svg">
<path d="M58.6784 81.1765C80.0598 81.1765 99.433 69.4679 109.445 50.5875V25.8859C109.445 24.3412 108.621 22.9137 107.282 22.1406L70.9337 1.15501C69.5955 0.381925 67.9477 0.381925 66.6094 1.15501L30.2608 22.1406C28.9225 22.9137 28.0986 24.3412 28.0986 25.8859V67.857C28.0986 69.4016 28.9225 70.8292 30.2608 71.6023L43.0613 78.9928C48.1541 80.4296 53.4024 81.1765 58.6784 81.1765Z" fill="#177FE2"/>
<path d="M58.6783 82.2565C54.5696 82.2565 50.4763 81.8145 46.46 80.9567L66.6093 92.5899C67.9476 93.363 69.5954 93.363 70.9336 92.5899L107.282 71.6043C108.621 70.8312 109.444 69.4037 109.444 67.859V52.7979C99.0032 71.0253 79.8087 82.2565 58.6783 82.2565Z" fill="#177FE2"/>
<path d="M86.9525 26.594C84.1667 32.9527 79.6622 35.1734 75.9431 35.8494C76.8378 34.9716 77.1859 33.7027 77.1859 32.0949C77.1859 30.3871 77.0026 28.7778 76.2449 27.9385C74.9652 26.514 73.6962 26.4216 72.2255 26.2753H49.6953L63.3443 18.1533C63.6277 17.9608 64.5224 17.7236 65.2817 17.7236H73.4129C77.4323 17.7236 81.1144 19.3314 83.526 21.5059C85.0891 22.9042 86.1841 24.6121 86.9525 26.594Z" fill="white"/>
<path d="M78.6569 52.2676V59.4948C78.6569 60.5358 78.1364 61.4321 77.2863 61.9526L63.8652 68.5485V59.1468L78.6569 52.2676Z" fill="white"/>
<path d="M64.7093 37.1895C63.4218 38.0811 62.7827 39.9738 62.7797 42.4178V68.5377L54.7979 62.9413V41.4907C54.7979 39.6504 56.4949 37.1895 58.383 37.1895H64.7093V37.1895Z" fill="white"/>
<path d="M87.8505 31.9008C87.8505 36.8596 85.2787 41.1023 81.327 43.4754C76.6039 46.3106 71.6882 45.9841 71.6882 45.9841H63.8604V42.419C63.8604 41.0699 64.0852 39.011 65.3264 37.9068C65.7007 37.5726 66.158 37.3277 66.7371 37.2122C66.9989 37.1599 72.1887 37.1876 72.452 37.2061C73.0803 37.2477 76.1111 37.1553 78.5258 36.3267C81.7028 35.2364 85.0631 32.8571 87.407 27.9707C87.6996 29.1935 87.8505 30.4886 87.8505 31.9008Z" fill="white"/>
<path d="M20.3078 98.0859C24.7153 98.0859 28.4574 99.6229 31.5836 102.751C34.7098 105.877 36.2483 109.619 36.2483 114.026C36.2483 118.434 34.7114 122.176 31.5836 125.302C28.4559 128.429 24.7153 129.967 20.3078 129.967H9.23671V145.188H0.93457V106.39V98.0859H20.3078ZM20.3078 121.663C22.4099 121.663 24.2024 120.895 25.6901 119.409C27.1762 117.923 27.9446 116.129 27.9446 114.026C27.9446 111.924 27.1762 110.132 25.6901 108.644C24.204 107.158 22.4099 106.39 20.3078 106.39H9.23671V129.043C9.44153 126.993 10.364 125.25 11.9533 123.764C13.5426 122.329 15.3875 121.611 17.488 121.611L20.3078 121.663Z" fill="#177FE2"/>
<path d="M47.6259 145.136V145.187H39.3223V98.0859C41.6292 98.0859 43.5757 98.9068 45.2158 100.545C46.8559 102.185 47.6752 104.134 47.6752 106.439V136.883H54.3896V138.472C54.3896 140.368 53.7228 141.957 52.4415 143.239C51.111 144.471 49.5232 145.136 47.6259 145.136Z" fill="#177FE2"/>
<path d="M71.6129 145.189C67.4611 145.189 63.8744 143.703 60.9007 140.73C57.9285 137.758 56.4424 134.17 56.4424 130.018C56.4424 125.866 57.9285 122.28 60.9007 119.306C63.8729 116.334 67.4611 114.848 71.6129 114.848C73.9707 114.848 76.2776 115.411 78.4813 116.488V114.848C80.7882 114.848 82.7348 115.667 84.3749 117.307C86.015 118.947 86.8343 120.895 86.8343 123.201V145.24H78.5306V143.599C76.276 144.625 74.0215 145.189 71.6129 145.189ZM76.4809 125.2C75.1488 123.867 73.5087 123.15 71.6637 123.15C69.768 123.15 68.1787 123.817 66.8466 125.2C65.5145 126.532 64.7969 128.172 64.7969 130.017C64.7969 131.912 65.4637 133.502 66.8466 134.834C68.1787 136.166 69.8188 136.884 71.6637 136.884C73.5595 136.884 75.1488 136.217 76.4809 134.834C77.813 133.502 78.5306 131.862 78.5306 130.017C78.4798 128.121 77.8145 126.532 76.4809 125.2Z" fill="#177FE2"/>
<path d="M110.514 114.846C110.514 116.896 109.847 118.69 108.566 120.228C107.284 121.714 105.644 122.687 103.645 123.046V130.069C103.645 131.964 104.312 133.554 105.695 134.886C107.027 136.218 108.667 136.936 110.512 136.936V145.187C106.36 145.187 102.774 143.701 99.8523 140.779C96.8801 137.807 95.4448 134.219 95.4448 130.016V123.148H87.9619C87.9619 121.046 88.6796 119.201 90.1148 117.613C91.5501 116.024 93.3442 115.154 95.4448 114.897V113.719C95.4448 111.72 96.2656 109.976 97.8533 108.543C99.4426 107.107 101.389 106.39 103.696 106.39V114.846C103.698 114.846 110.514 114.846 110.514 114.846Z" fill="#177FE2"/>
<path d="M133.166 127.608C131.988 126.787 129.527 125.148 125.633 124.891C125.171 124.84 124.812 124.994 123.531 124.686C123.172 124.583 122.608 124.482 122.353 123.815C122.302 123.61 122.249 123.405 122.249 123.251C122.249 123.251 122.249 123.251 122.249 123.2V123.149C122.249 122.995 122.3 122.841 122.353 122.74C122.608 122.073 123.429 121.459 124.505 121.408C125.633 121.357 126.555 121.87 126.914 122.638C127.119 123.1 127.478 123.816 127.99 123.816H134.961C134.961 121.357 133.935 119.204 131.885 117.461C129.835 115.717 127.374 114.795 124.453 114.744C121.583 114.795 119.123 115.717 117.073 117.461C115.024 119.255 114.049 121.355 114.049 123.816C114.049 126.276 115.075 128.429 117.073 130.172C119.123 131.966 121.584 132.838 124.453 132.838C125.631 132.838 126.555 133.042 127.324 133.401C128.092 133.76 128.451 134.273 128.451 134.938C128.451 135.451 128.195 136.169 127.478 136.629C126.811 137.091 125.941 137.296 124.966 137.347C123.685 137.347 122.659 136.68 121.994 135.911C121.43 135.143 120.662 134.733 119.636 134.733H113.28C113.23 137.245 114.101 139.449 115.894 141.397C117.688 143.293 119.841 144.574 122.608 145.087C123.121 145.19 124.145 145.342 124.915 145.342C125.685 145.342 126.709 145.239 127.17 145.138C129.886 144.625 132.039 143.343 133.884 141.499C135.678 139.654 136.601 137.45 136.601 134.989C136.704 132.068 135.729 129.453 133.166 127.608Z" fill="#177FE2"/>
</svg>
